<svg xmlns="http://www.w3.org/2000/svg" viewBox="0 0 345.6 512"><title>Fichier 1andro</title><g id="Calque_2" data-name="Calque 2"><g id="Layer_1" data-name="Layer 1"><path d="M32,158.4V114.67A114.8,114.8,0,0,1,146.67,0H200A114.8,114.8,0,0,1,314.67,114.67v80a8.54,8.54,0,1,1-17.07,0V114.67A97.71,97.71,0,0,0,200,17.07H146.67a97.71,97.71,0,0,0-97.6,97.6V158.4a8.54,8.54,0,0,1-17.07,0ZM257.52,365A35.46,35.46,0,0,1,227,347.86a8.53,8.53,0,1,0-14.57,8.88,52.38,52.38,0,0,0,45.07,25.31,71,71,0,0,1,71,71v50.41a8.54,8.54,0,0,0,17.07,0V453.06A88,88,0,0,0,257.52,365Zm-43,24.9a64.74,64.74,0,0,1-97.43-16.5,52.43,52.43,0,0,0,23.53-39.76,114.35,114.35,0,0,0,32.18,4.65c63.93,0,114.13-52.46,114.13-113.49,0-.58,0-58.94,0-59.52a8.53,8.53,0,0,0-5.31-7.83c-2.1-.85-36.13-8.53-50.75-45.38a8.54,8.54,0,0,0-14.72-2A208.29,208.29,0,0,1,58.33,192,8.53,8.53,0,1,0,59,209.06,225.38,225.38,0,0,0,221.15,131a92.85,92.85,0,0,0,48.72,40.58v52.6A97.18,97.18,0,0,1,172.8,321.2c-48.24,0-89.58-36-96.15-83.69a8.53,8.53,0,1,0-16.91,2.33,114.13,114.13,0,0,0,64,87.34v2.24A35.57,35.57,0,0,1,88.08,365,88,88,0,0,0,0,453.06v50.41a8.54,8.54,0,0,0,17.07,0V453.06a71,71,0,0,1,71-71,53.21,53.21,0,0,0,13.34-1.7,81.8,81.8,0,0,0,124.09,22.59,8.53,8.53,0,1,0-11-13.06Z"/></g></g></svg>