<svg xmlns="http://www.w3.org/2000/svg" viewBox="0 0 345.55 512"><title>Fichier 1man</title><g id="Calque_2" data-name="Calque 2"><g id="Layer_1" data-name="Layer 1"><path d="M345.55,453.07v50.4a8.53,8.53,0,0,1-17.06,0v-50.4a71,71,0,0,0-71-71,52.38,52.38,0,0,1-45.07-25.31A8.53,8.53,0,0,1,227,347.88,35.45,35.45,0,0,0,257.49,365a88,88,0,0,1,88.06,88.07ZM196.66,367.54a8.54,8.54,0,0,1-6.52,10.15,81.69,81.69,0,0,1-63.48-12.41c-18,19.29-41.78,16.79-38.59,16.79a71,71,0,0,0-71,71v50.4a8.53,8.53,0,0,1-17.06,0v-50.4A88,88,0,0,1,88.06,365a35.57,35.57,0,0,0,35.66-35.56V327.2a114.31,114.31,0,0,1-65-98.81A34.82,34.82,0,0,1,32,194.67V150.43c-.47-21.65,2.74-75.87,42.28-114C123.1-10.62,201.39-7.63,259,20.09a8.55,8.55,0,0,1,1.81,14.21A115.16,115.16,0,0,1,331.24,85a9.42,9.42,0,0,1,2,6.7,8.65,8.65,0,0,1-2.45,5.42,55.69,55.69,0,0,0-16.12,39.35v58.2a8.54,8.54,0,0,1-17.07,0v-58.2a72.57,72.57,0,0,1,16.58-46.38,98.58,98.58,0,0,0-70.75-41.54l-15-1.6c-8.77-.94-10.49-13-2.34-16.37l6.82-2.81C144.05-3.2,49.06,31.21,49.06,150.34v44.33a17.62,17.62,0,0,0,9.6,15.61V155a59.79,59.79,0,0,1,59.72-59.72H227.17A59.79,59.79,0,0,1,286.89,155v69.86c0,74.2-72.51,130.56-146.29,108.84a52.12,52.12,0,0,1-4.47,17.42A64.62,64.62,0,0,0,186.51,361a8.53,8.53,0,0,1,10.15,6.52Zm-23.88-46.32a97.16,97.16,0,0,0,97-97.05V155a42.71,42.71,0,0,0-42.66-42.66H118.38A42.71,42.71,0,0,0,75.72,155v69.21a97.16,97.16,0,0,0,97.06,97.05Zm86.38,147H233.57a8.54,8.54,0,0,0,0,17.07h25.59a8.54,8.54,0,1,0,0-17.07Z"/></g></g></svg>