<?xml version="1.0" encoding="utf-8"?>
<!-- Generator: Adobe Illustrator 24.0.1, SVG Export Plug-In . SVG Version: 6.00 Build 0)  -->
<svg version="1.1" id="Capa_1" xmlns="http://www.w3.org/2000/svg" xmlns:xlink="http://www.w3.org/1999/xlink" x="0px" y="0px"
	 viewBox="0 0 38 38" style="enable-background:new 0 0 38 38;" xml:space="preserve">
<style type="text/css">
	.st0{fill:#FFFFFF;}
</style>
<g>
	<path class="st0" d="M35.6,11.7c1.7,10.6-9,24.5-9.5,25.1c-0.2,0.3-0.6,0.5-0.9,0.6c-0.3,0.1-0.7,0-1-0.2c-0.1-0.1-0.4-0.3-1-0.7
		c2.4-3.3,10.3-15,8.8-24.2C30.8,5,24.5-0.1,17.4,0.2c0.6-0.2,1.2-0.3,1.8-0.4C27-1.5,34.3,3.8,35.6,11.7z M29.3,12.6
		c1.7,10.6-9,24.5-9.5,25.1c-0.2,0.3-0.6,0.5-0.9,0.6c-0.3,0.1-0.7,0-1-0.2c-0.6-0.4-15-9.7-16.8-20.9C-0.3,9.3,5.1,2,12.9,0.7
		C20.7-0.5,28.1,4.8,29.3,12.6z M21.9,13.8c-0.6-3.7-4.1-6.3-7.8-5.7S7.8,12.2,8.4,16s4.1,6.3,7.8,5.7S22.5,17.5,21.9,13.8z"/>
</g>
</svg>
