<?xml version="1.0" encoding="iso-8859-1"?>
<!-- Generator: Adobe Illustrator 19.0.0, SVG Export Plug-In . SVG Version: 6.00 Build 0)  -->
<svg version="1.1" id="Layer_1" xmlns="http://www.w3.org/2000/svg" xmlns:xlink="http://www.w3.org/1999/xlink" x="0px" y="0px"
	 viewBox="0 0 511.979 511.979" style="enable-background:new 0 0 511.979 511.979;" xml:space="preserve">
<g>
	<g>
		<path d="M501.376,425.4c-21.867,0-34.624,10.496-44.501,20.48l-184.96-276.864c-11.072-16.555-27.947-27.84-47.509-31.723
			c-16.043-3.221-32.32-1.131-46.763,5.845l-35.989-53.845l8.875-5.931c4.885-3.264,6.229-9.899,2.944-14.784
			c-3.264-4.907-9.877-6.229-14.784-2.965l-19.712,13.163l-17.621-49.237c-1.109-3.093-3.605-5.504-6.699-6.528
			c-3.093-1.024-6.528-0.576-9.28,1.259L32.149,59.81c-2.731,1.835-4.459,4.821-4.693,8.085c-0.256,3.264,1.024,6.485,3.477,8.683
			l38.741,35.157l-1.984,1.301l-17.728,11.861c-4.885,3.264-6.229,9.899-2.944,14.784c2.048,3.093,5.397,4.757,8.853,4.757
			c2.027,0,4.096-0.576,5.909-1.792l8.875-5.931l35.989,53.824c-27.157,24.405-33.003,65.792-12.139,97.003l93.141,139.413
			c-4.032-0.917-8.341-1.557-13.227-1.557c-25.024,0-38.123,13.696-48.64,24.661c-9.685,10.133-17.323,18.112-33.237,18.112
			s-23.552-7.979-33.237-18.112C48.789,439.074,35.691,425.4,10.667,425.4C4.779,425.4,0,430.178,0,436.066
			c0,5.888,4.779,10.667,10.667,10.667c15.915,0,23.552,7.979,33.237,18.112c10.517,10.987,23.616,24.661,48.64,24.661
			c25.024,0,38.123-13.696,48.64-24.661c9.685-10.133,17.323-18.112,33.237-18.112c15.872,0,23.509,7.979,33.173,18.091
			c10.517,11.008,23.573,24.683,48.576,24.683c24.981,0,38.059-13.696,48.555-24.683c9.472-9.92,17.088-17.685,32.384-17.984h1.557
			c7.211,0.128,12.736,1.941,17.515,4.864l1.493,0.981c4.693,3.2,8.832,7.381,13.355,12.117
			c10.496,11.008,23.573,24.683,48.555,24.683c25.003,0,38.08-13.696,48.576-24.683c9.664-10.112,17.28-18.091,33.152-18.091
			c5.888,0,10.667-4.779,10.667-10.667S507.264,425.4,501.376,425.4z M420.373,468.109L283.819,263.757
			c0-0.021-0.021-0.021-0.043-0.043c-0.064-0.085-0.085-0.171-0.149-0.256c-10.667-14.933-36.715-13.547-61.931,3.285
			c-10.837,7.253-19.691,16.32-24.96,25.536c-6.571,11.541-7.125,22.443-1.621,30.677l17.664,26.475
			c-2.88,2.005-5.675,3.989-8.768,6.059c-2.347,1.579-3.989,4.011-4.523,6.784c-0.533,2.773,0.021,5.675,1.6,8l64.576,96.64
			c-2.859,0.747-5.909,1.259-9.472,1.259c-7.893,0-13.76-1.984-18.837-5.227L112.256,275.704
			c-16.341-24.448-9.728-57.621,14.72-73.963c4.885-3.264,6.229-9.899,2.944-14.784l-34.837-52.139l0.981,0.896
			c1.685,1.536,3.755,2.283,5.909,2.539c0.256,0.021,0.448,0.128,0.704,0.128c0.171,0,0.341,0.107,0.533,0.107
			c2.069,0,4.117-0.576,5.931-1.792l17.771-11.861c4.075-2.731,5.781-7.872,4.117-12.48l-0.427-1.195l34.816,52.096
			c1.557,2.347,4.011,4.011,6.784,4.544c2.816,0.555,5.653-0.021,8-1.579c11.84-7.915,26.069-10.709,40.021-7.979
			c13.973,2.795,26.027,10.837,33.941,22.677l187.029,279.936C435.627,465.101,429.312,467.96,420.373,468.109z M243.477,325.709
			c-4.032,3.584-8.469,7.275-13.419,11.115l-4.011-5.973c5.931-1.152,11.819-3.285,17.152-6.208L243.477,325.709z"/>
	</g>
</g>
<g>
</g>
<g>
</g>
<g>
</g>
<g>
</g>
<g>
</g>
<g>
</g>
<g>
</g>
<g>
</g>
<g>
</g>
<g>
</g>
<g>
</g>
<g>
</g>
<g>
</g>
<g>
</g>
<g>
</g>
</svg>
