<?xml version="1.0" encoding="utf-8"?>
<!-- Generator: Adobe Illustrator 24.0.1, SVG Export Plug-In . SVG Version: 6.00 Build 0)  -->
<svg version="1.1" id="Capa_1" xmlns="http://www.w3.org/2000/svg" xmlns:xlink="http://www.w3.org/1999/xlink" x="0px" y="0px"
	 viewBox="0 0 35 35" style="enable-background:new 0 0 35 35;" xml:space="preserve">
<style type="text/css">
	.st0{fill:#FFFFFF;}
</style>
<g>
	<path class="st0" d="M34,29.2L33.7,33c-0.1,1.4-1.3,2.4-2.7,2.3L1.1,32.7c-1.4-0.1-2.4-1.3-2.3-2.7l0.3-3.8c0.1-1.1,0.9-2,2-2.2
		l10.8-2.4c-2-2.9-3-7.3-2.7-11.3c0.5-6.1,4.3-9.7,9.7-9.2s8.5,4.7,7.9,10.8c-0.4,4-2.1,8.2-4.6,10.7l10.2,4.2
		C33.5,27.1,34.1,28.1,34,29.2z"/>
</g>
</svg>
