<svg height="436pt" viewBox="0 -91 436.3 436" width="436pt" xmlns="http://www.w3.org/2000/svg"><path d="m74.800781 40.351562-35.101562 37.097657v98.800781l35.101562 37.101562h286.699219l35.101562-37.101562v-98.898438l-34.601562-37.101562zm143.300781 75.398438c18.316407 0 33.828126 13.503906 36.347657 31.644531 2.519531 18.144531-8.726563 35.367188-26.347657 40.355469v8.101562c0 5.519532-4.480468 10-10 10-5.523437 0-10-4.480468-10-10v-8.101562c-15.785156-4.484375-26.679687-18.890625-26.703124-35.300781 0-5.523438 4.480468-10 10-10 5.523437 0 10 4.476562 10 10 0 9.222656 7.476562 16.699219 16.703124 16.699219 9.222657 0 16.699219-7.476563 16.699219-16.699219 0-9.222657-7.476562-16.699219-16.699219-16.699219-18.316406 0-33.832031-13.503906-36.351562-31.644531-2.519531-18.144531 8.726562-35.367188 26.351562-40.355469v-6c0-5.523438 4.476563-10 10-10 5.519532 0 10 4.476562 10 10v6c15.78125 4.484375 26.679688 18.890625 26.699219 35.300781 0 5.523438-4.476562 10-10 10-5.523437 0-10-4.476562-10-10 0-9.222656-7.476562-16.699219-16.699219-16.699219-9.226562 0-16.703124 7.476563-16.703124 16.699219 0 9.222657 7.476562 16.699219 16.703124 16.699219zm0 0"/><path d="m406.199219.148438h-376.199219c-16.546875.050781-29.953125 13.453124-30 30v193.402343c.046875 16.546875 13.453125 29.949219 30 30h376.300781c16.546875-.050781 29.949219-13.453125 30-30v-193.402343c-.097656-16.566407-13.53125-29.957032-30.101562-30zm10.402343 180.101562c-.015624 2.554688-.976562 5.015625-2.703124 6.898438l-40.796876 43.101562c-1.902343 2-4.542968 3.121094-7.300781 3.101562h-295.300781c-2.753906 0-5.386719-1.121093-7.300781-3.101562l-40.800781-43.101562c-1.761719-1.859376-2.730469-4.335938-2.699219-6.898438v-106.800781c.015625-2.554688.976562-5.015625 2.699219-6.898438l40.800781-43.101562c1.902343-1.996094 4.542969-3.121094 7.300781-3.097657h295.800781c2.777344-.03125 5.4375 1.136719 7.300781 3.199219l40.296876 43.097657c1.707031 1.859374 2.667968 4.28125 2.703124 6.800781zm0 0"/></svg>