<?xml version="1.0" encoding="utf-8"?>
<!-- Generator: Adobe Illustrator 24.0.1, SVG Export Plug-In . SVG Version: 6.00 Build 0)  -->
<svg version="1.1" id="Capa_1" xmlns="http://www.w3.org/2000/svg" xmlns:xlink="http://www.w3.org/1999/xlink" x="0px" y="0px"
	 viewBox="0 0 512 512" style="enable-background:new 0 0 512 512;" xml:space="preserve">
<g>
	<circle cx="128" cy="264" r="25"/>
	<path d="M128,319c-18.2,0-33,14.8-33,33v25h66v-25C161,333.8,146.2,319,128,319z"/>
	<path d="M393,309c-82.2,0-149-66.8-149-149c0-13.5,1.8-26.6,5.2-39H45c-24.8,0-45,20.2-45,45v260c0,24.8,20.2,45,45,45h373
		c24.8,0,45-20.2,45-45V291.5C442.1,302.7,418.3,309,393,309z M248,313h56c8.3,0,15,6.7,15,15s-6.7,15-15,15h-56
		c-8.3,0-15-6.7-15-15S239.7,313,248,313z M191,392c0,8.3-6.7,15-15,15H80c-8.3,0-15-6.7-15-15v-40c0-20,9.4-37.8,23.9-49.4
		C79.1,292.7,73,279.1,73,264c0-30.3,24.7-55,55-55s55,24.7,55,55c0,15.1-6.1,28.7-15.9,38.6C181.6,314.2,191,332,191,352V392z
		 M328,407h-80c-8.3,0-15-6.7-15-15s6.7-15,15-15h80c8.3,0,15,6.7,15,15S336.3,407,328,407z"/>
	<path d="M393,41c-65.6,0-119,53.4-119,119s53.4,119,119,119s119-53.4,119-119S458.6,41,393,41z M428.5,145.6l-40,48
		c-2.9,3.4-7.1,5.4-11.5,5.4c-0.6,0-1.2,0-1.7-0.1c-5-0.6-9.4-3.7-11.7-8.2l-16-32c-3.7-7.4-0.7-16.4,6.7-20.1
		c7.4-3.7,16.4-0.7,20.1,6.7l5.7,11.5l25.3-30.4c5.3-6.4,14.8-7.2,21.1-1.9C433,129.8,433.8,139.2,428.5,145.6z"/>
</g>
</svg>
