<svg xmlns="http://www.w3.org/2000/svg" viewBox="0 0 622 992"><title>Fichier 2share3</title><g id="Calque_2" data-name="Calque 2"><g id="Calque_1-2" data-name="Calque 1"><path d="M126.08,772.93,329.79,976.65c8.86,8.86,17.91,13.35,26.9,13.35,12.47,0,27-9.35,27-35.68V828.71A256.12,256.12,0,0,0,607.41,488a15,15,0,0,0-28.29,0C549.34,572.26,472,631,383.73,638V513.69c0-26.34-14.56-35.69-27-35.69-9,0-18,4.49-26.89,13.35L126.08,695.07a55.17,55.17,0,0,0,0,77.86Zm21.21-56.65L351,512.56c1-1,1.82-1.72,2.56-2.33a33.35,33.35,0,0,1,.16,3.45v140a15,15,0,0,0,15,15h.17A256.23,256.23,0,0,0,589.26,538.06,227.75,227.75,0,0,1,592,573.34c0,123.22-100.23,224.59-223.44,226a15,15,0,0,0-14.83,15v140a33.49,33.49,0,0,1-.16,3.45c-.74-.61-1.6-1.37-2.56-2.33L147.29,751.72a25.18,25.18,0,0,1,0-35.44Z"/><path d="M495.92,217.07,292.2,13.35C283.34,4.49,274.3,0,265.31,0c-12.48,0-27,9.35-27,35.68V161.29A256.12,256.12,0,0,0,14.59,502a15,15,0,0,0,28.28,0C72.66,417.74,150,359,238.27,352V476.31c0,26.34,14.57,35.69,27,35.69h0c9,0,18-4.49,26.89-13.35L495.92,294.93a55.17,55.17,0,0,0,0-77.86Z"/><path d="M125.08,774.93,328.8,978.65c8.85,8.86,17.9,13.35,26.89,13.35,12.48,0,27-9.35,27-35.68V830.71A256.12,256.12,0,0,0,606.41,490a15,15,0,0,0-28.29,0C548.34,574.26,471,633,382.73,640V515.69c0-26.34-14.57-35.69-27-35.69h0c-9,0-18,4.49-26.89,13.35L125.08,697.07a55.17,55.17,0,0,0,0,77.86Z"/></g></g></svg>