<?xml version="1.0" encoding="utf-8"?>
<!-- Generator: Adobe Illustrator 24.0.1, SVG Export Plug-In . SVG Version: 6.00 Build 0)  -->
<svg version="1.1" id="Calque_1" xmlns="http://www.w3.org/2000/svg" xmlns:xlink="http://www.w3.org/1999/xlink" x="0px" y="0px"
	 viewBox="0 0 512 512" style="enable-background:new 0 0 512 512;" xml:space="preserve">
<style type="text/css">
	.st0{fill:#FFFFFF;}
</style>
<g id="_28-collaborative">
	<g id="Glyph">
		<path class="st0" d="M224.9,315.9c-34.9-5.5-58.7-38.3-53.2-73.2c5.2-33,34.9-56.4,68.2-53.8c1.7,0.1,3.4,0.3,5,0.6l6.7-42.1
			c1.1-7.1,4-13.9,8.5-19.5c-1.6-0.7-3.4-1.2-5.2-1.5l-68.9-10.9c5.5-6.7,8.7-14.9,9.4-23.5c1.8-23.5-15.7-44-39.2-45.9
			c-22.2-1.7-42,13.9-45.5,35.9c-1.2,7.4-0.4,15,2.3,22L44.2,92.9C32.6,91,21.7,99,19.8,110.6l-33.4,210.7
			c-1.8,11.6,6.1,22.6,17.7,24.4l68.9,10.9c-5.5,6.7-8.7,14.9-9.4,23.5c-1.8,23.5,15.7,44,39.2,45.9c22.2,1.7,42-13.9,45.5-35.9
			c1.2-7.4,0.4-15-2.3-22l68.9,10.9c1.8,0.3,3.6,0.3,5.4,0.1c-2.5-6.8-3.2-14.1-2-21.2L224.9,315.9z"/>
		<path class="st0" d="M507.8,166.3l-68.9-10.9c3.1,8.1,3.7,16.9,1.7,25.3c-5.5,22.9-28.6,37-51.5,31.5
			c-21.6-5.2-35.6-26.2-32.2-48.2c1.2-7.4,4.3-14.4,9-20.2l-68.9-10.9c-11.6-1.8-22.6,6.1-24.4,17.7l-10.9,68.9
			c-6.7-5.5-14.9-8.7-23.5-9.4c-23.5-1.9-44,15.7-45.9,39.2c-1.8,22.2,13.9,42,35.9,45.5c7.4,1.2,15,0.4,22-2.3l-10.9,68.9
			c-1.8,11.6,6.1,22.6,17.7,24.4l68.9,10.9c-3.1-8.1-3.7-16.9-1.7-25.3c5.5-22.9,28.6-37,51.5-31.5c21.6,5.2,35.6,26.2,32.2,48.2
			c-1.2,7.4-4.3,14.4-9,20.2l68.9,10.9c11.6,1.8,22.6-6.1,24.4-17.7l33.4-210.7C527.4,179.1,519.4,168.1,507.8,166.3z"/>
	</g>
</g>
</svg>
