<svg xmlns="http://www.w3.org/2000/svg" viewBox="0 0 345.6 512"><title>Fichier 1female</title><g id="Calque_2" data-name="Calque 2"><g id="Layer_1" data-name="Layer 1"><path d="M345.6,453.06v50.41a8.54,8.54,0,0,1-17.07,0V453.06a71,71,0,0,0-71-71,53,53,0,0,1-19.52-3.7L218.52,504.77a8.53,8.53,0,1,1-16.86-2.6l20.58-133.62a53,53,0,0,1-9.79-11.81A8.53,8.53,0,1,1,227,347.86,35.55,35.55,0,0,0,257.52,365a88,88,0,0,1,88.08,88.08Zm-141-56.39a8.53,8.53,0,0,0-12-1.52L172.8,410.54,124,372.77l-.65-4.23a52.24,52.24,0,0,0,17.26-34.9C213.47,355.09,286.35,300.42,286.93,225v-59.7a8.56,8.56,0,0,0-4.85-7.69c-1.86-.89-36.42-8.32-51.22-45.59a8.54,8.54,0,0,0-14.71-2A207.73,207.73,0,0,1,90.87,188.15a8.53,8.53,0,0,0,1.65,16.9c2.15,0,74-10.62,128.63-74.1a92.85,92.85,0,0,0,48.72,40.58v52.6A97.18,97.18,0,0,1,172.8,321.2c-50.1,0-97.07-38.94-97.07-100.4a8.53,8.53,0,0,0-17.06,0c0,.44,0,4.71,0,5.14a114.31,114.31,0,0,0,65.05,101.23v2.25a35.23,35.23,0,0,1-10.44,25.15C101.31,366.52,85.85,365,88.08,365a87.7,87.7,0,0,0-39,9.09V114.67a97.71,97.71,0,0,1,97.6-97.6H200a97.71,97.71,0,0,1,97.6,97.6V345.6a8.54,8.54,0,0,0,17.07,0V114.67A114.8,114.8,0,0,0,200,0H146.67A114.8,114.8,0,0,0,32,114.67V385.14A87.64,87.64,0,0,0,0,453.06v50.41a8.54,8.54,0,0,0,17.07,0V453.06a70.5,70.5,0,0,1,20.8-50.21c23.7-23.71,53.83-20.8,50.21-20.8a52.89,52.89,0,0,0,19.52-3.72l19.48,126.43a8.53,8.53,0,1,0,16.86-2.59l-16.16-104.9,39.8,30.81a8.53,8.53,0,0,0,10.44,0l25.11-19.44a8.53,8.53,0,0,0,1.52-12Z"/></g></g></svg>