<?xml version="1.0" encoding="utf-8"?>
<!-- Generator: Adobe Illustrator 24.0.1, SVG Export Plug-In . SVG Version: 6.00 Build 0)  -->
<svg version="1.1" id="Capa_1" xmlns="http://www.w3.org/2000/svg" xmlns:xlink="http://www.w3.org/1999/xlink" x="0px" y="0px"
	 viewBox="0 0 28 28" style="enable-background:new 0 0 28 28;" xml:space="preserve">
<style type="text/css">
	.st0{fill:#FFBF40;}
</style>
<g>
	<g id="c142_x">
		<path class="st0" d="M14,0C6.3,0,0,6.3,0,14c0,7.7,6.3,14,14,14c7.7,0,14-6.3,14-14C28,6.3,21.7,0,14,0z M20,17.8L17.8,20
			c0,0-3.5-3.8-3.8-3.8c-0.3,0-3.8,3.8-3.8,3.8L8,17.8c0,0,3.8-3.5,3.8-3.8c0-0.3-3.8-3.8-3.8-3.8L10.2,8c0,0,3.6,3.8,3.8,3.8
			c0.2,0,3.8-3.8,3.8-3.8l2.2,2.2c0,0-3.8,3.5-3.8,3.8C16.2,14.2,20,17.8,20,17.8z"/>
	</g>
	<g id="Capa_1_104_">
	</g>
</g>
</svg>
