<?xml version="1.0" encoding="utf-8"?>
<!-- Generator: Adobe Illustrator 24.0.1, SVG Export Plug-In . SVG Version: 6.00 Build 0)  -->
<svg version="1.1" id="Calque_1" xmlns="http://www.w3.org/2000/svg" xmlns:xlink="http://www.w3.org/1999/xlink" x="0px" y="0px"
	 viewBox="0 0 340.6 365.7" style="enable-background:new 0 0 340.6 365.7;" xml:space="preserve">
<title>Fichier 1delete</title>
<g id="Calque_2_1_">
	<g id="Capa_1">
		<path d="M75.8,339.1c1.6,15.6,15.1,27.3,30.8,26.6h131.7c16,0.6,29.7-11.3,31.3-27.2L291,114.9H49.6L75.8,339.1z"/>
		<path d="M330.2,47H233V30.3c0.6-16.1-12-29.7-28.2-30.3c0,0,0,0,0,0c-0.5,0-1.1,0-1.6,0h-65.8c-16.2-0.3-29.5,12.5-29.8,28.7
			c0,0,0,0,0,0c0,0.5,0,1.1,0,1.6V47H10.4C4.7,46.8-0.1,51.4-0.3,57.1S4,67.7,9.8,67.9c0.2,0,0.4,0,0.6,0h319.7
			c5.8,0.2,10.6-4.4,10.8-10.1c0.2-5.8-4.4-10.6-10.1-10.8C330.6,47,330.4,47,330.2,47z M212.1,30.3V47h-83.6V30.3
			c-0.6-4.6,2.7-8.8,7.2-9.4c0.5-0.1,1.1-0.1,1.6,0h65.8c4.6-0.3,8.6,3.1,8.9,7.7C212.2,29.2,212.2,29.8,212.1,30.3L212.1,30.3z"/>
	</g>
</g>
</svg>
