<svg xmlns="http://www.w3.org/2000/svg" viewBox="0 0 512 442.8"><defs><style>.cls-1{fill:#ffbf40;}</style></defs><title>Fichier 3banniere</title><g id="Calque_2" data-name="Calque 2"><g id="Calque_1-2" data-name="Calque 1"><path class="cls-1" d="M0,417.6a25.23,25.23,0,0,0,25.21,25.2H486.79A25.23,25.23,0,0,0,512,417.6V139.2H0Zm284.27-221,38.41-.22a15,15,0,0,1,15.09,15.09l-.22,38.42a15,15,0,0,1-15,14.91h-.08a15,15,0,0,1-14.92-15.08V247.8l-40.95,41a15,15,0,0,1-21.22-21.21l41-41h-2a15,15,0,0,1-.08-30Zm-110,14.78a15,15,0,0,1,15-15h45a15,15,0,0,1,0,30h-30V329.92H307.77V300a15,15,0,0,1,30,0v44.95a15,15,0,0,1-15,15H189.23a15,15,0,0,1-15-15Z"/><path class="cls-1" d="M512,25.21A25.24,25.24,0,0,0,486.79,0H25.21A25.24,25.24,0,0,0,0,25.21v84H512ZM333.2,73.88A19.28,19.28,0,1,1,352.48,54.6,19.28,19.28,0,0,1,333.2,73.88Zm56,0A19.28,19.28,0,1,1,408.46,54.6,19.28,19.28,0,0,1,389.18,73.88Zm56,0A19.28,19.28,0,1,1,464.45,54.6,19.28,19.28,0,0,1,445.16,73.88Z"/></g></g></svg>