<?xml version="1.0" encoding="utf-8"?>
<!-- Generator: Adobe Illustrator 24.0.1, SVG Export Plug-In . SVG Version: 6.00 Build 0)  -->
<svg version="1.1" id="Calque_1" xmlns="http://www.w3.org/2000/svg" xmlns:xlink="http://www.w3.org/1999/xlink" x="0px" y="0px"
	 viewBox="0 0 409.7 430.1" style="enable-background:new 0 0 409.7 430.1;" xml:space="preserve">
<title>Fichier 1refresh</title>
<g id="Calque_2_1_">
	<g id="Capa_1">
		<path d="M166.2,148.4C56.7,176.3,17.1,273.1,17.1,273.1C-29,155,94.1,75.9,120.8,60.4L98.1,16.2c-3.5-6.7-0.4-10.8,6.9-8.9
			l138.5,34.4c6.3,1.4,10.3,7.7,8.9,14c-0.2,0.7-0.4,1.4-0.6,2l-52,133.6c-2.7,7-7.8,7.3-11.2,0.6L166.2,148.4z"/>
		<path d="M17.1,279.9L17.1,279.9c-2.9,0-5.4-1.7-6.4-4.4c-45.4-116.4,66-196.1,101.1-217.7L92,19.3c-4.2-8.1-1.3-13.2,0.2-15.1
			s5.7-5.8,14.5-3.6L245.1,35c5.3,1.2,9.8,4.7,12.3,9.5c2.5,4.9,2.7,10.5,0.7,15.6l-52,133.6c-3.3,8.5-9,9.7-11.3,9.8
			s-8.2-0.5-12.3-8.6l-19.8-38.4C61.8,184.8,23.8,274.7,23.4,275.7C22.3,278.2,19.8,279.9,17.1,279.9z M104.7,14.2l22.2,43
			c1.6,3.2,0.5,7.2-2.6,9c-23.5,13.7-134.1,84.2-105.9,189c16.3-29.2,60.1-91.4,146.1-113.4c3.1-0.8,6.3,0.7,7.8,3.5l21.7,42.1
			l51.5-132.2c0.6-1.4,0.6-3-0.1-4.4c-0.7-1.3-2-2.2-3.4-2.5L104.7,14.2z"/>
		<path d="M243.5,281.6C353,253.8,392.6,157,392.6,157c46.1,118.1-77,197.2-103.7,212.7l22.8,44.2c3.5,6.7,0.4,10.8-6.9,8.9
			l-138.5-34.4c-6.3-1.4-10.3-7.7-8.9-14c0.2-0.7,0.4-1.4,0.6-2l52-133.6c2.7-7,7.8-7.3,11.2-0.5L243.5,281.6z"/>
		<path d="M307.9,430.1c-1.6,0-3.3-0.2-4.9-0.6l-138.5-34.4c-5.3-1.2-9.8-4.7-12.3-9.5c-2.5-4.9-2.7-10.6-0.7-15.6l52-133.6
			c3.3-8.5,9-9.7,11.3-9.8s8.1,0.5,12.3,8.6l19.8,38.4c101-28.4,138.8-118.3,139.2-119.2c1.1-2.6,3.6-4.2,6.3-4.2h0.1
			c2.8,0,5.3,1.7,6.3,4.3c45.4,116.4-66,196.1-101.1,217.7l19.8,38.5c4.2,8.1,1.3,13.2-0.1,15.1
			C315.2,428.7,311.6,430.2,307.9,430.1z M215.8,242.7l-51.5,132.2c-0.6,1.4-0.6,3,0.1,4.4c0.7,1.3,2,2.2,3.4,2.5l137.1,34l-22.2-43
			c-1.7-3.2-0.5-7.2,2.6-9c23.5-13.6,134.1-84.2,105.9-188.9c-16.3,29.1-60,91.4-146.1,113.3c-3.1,0.8-6.3-0.7-7.8-3.5L215.8,242.7z
			"/>
	</g>
</g>
</svg>
