<?xml version="1.0" encoding="utf-8"?>
<!-- Generator: Adobe Illustrator 24.0.1, SVG Export Plug-In . SVG Version: 6.00 Build 0)  -->
<svg version="1.1" id="Layer_1" xmlns="http://www.w3.org/2000/svg" xmlns:xlink="http://www.w3.org/1999/xlink" x="0px" y="0px"
	 viewBox="0 0 492 492" style="enable-background:new 0 0 492 492;" xml:space="preserve">
<style type="text/css">
	.st0{fill:#C72C48;}
</style>
<g>
	<g>
		<path class="st0" d="M484.1,328.5L265,109.3c-5.1-5.1-11.8-7.8-19.2-7.8c-7.2,0-14,2.8-19,7.8L7.9,328.3c-5.1,5.1-7.9,11.8-7.9,19
			s2.8,14,7.9,19L24,382.5c5.1,5.1,11.8,7.9,19,7.9s14-2.8,19-7.9l183.9-183.9l184.1,184.1c5.1,5.1,11.8,7.9,19,7.9
			c7.2,0,14-2.8,19-7.9l16.1-16.1C494.6,356,494.6,339,484.1,328.5z"/>
	</g>
</g>
</svg>
