<svg id="Capa_1" enable-background="new 0 0 512 512" height="512" viewBox="0 0 512 512" width="512" xmlns="http://www.w3.org/2000/svg"><g><path d="m496.607 422.283-31.855-31.855-74.324 74.324 31.855 31.855c20.524 20.524 53.8 20.524 74.324 0 20.524-20.524 20.524-53.8 0-74.324z"/><path d="m479.591 107.601-42.859-107.524-33.57 33.57 42.859 107.524z"/><path d="m422.93 164.262-42.859-107.524-67.701 67.701 75.191 75.192z"/><path d="m339.359 193.854-250.012 250.011-21.213-21.213 250.012-250.011-34.509-34.509-264.95 264.95c-24.916 24.917-24.916 65.314 0 90.23 24.916 24.916 65.314 24.916 90.23 0l264.95-264.95z"/><path d="m167.114 212.229 45.115-45.115-91.922-91.922-120.307-75.192 75.192 120.307z"/><path d="m405.573 331.249-14.605 14.604-46.082-46.082-45.115 45.115 46.082 46.082-14.604 14.605 37.967 37.966 74.323-74.323z"/></g></svg>