<svg id="Capa_1" enable-background="new 0 0 512 512" height="512" viewBox="0 0 512 512" width="512" xmlns="http://www.w3.org/2000/svg"><g><g><g><path d="m223.5 151h85v230h-85z"/><path d="m223.5 91h85v30h-85z"/><path d="m308.5 61v-17.5c0-23.472-19.028-42.5-42.5-42.5-23.472 0-42.5 19.028-42.5 42.5v17.5z"/><path d="m227.068 411 24.469 88.978c1.791 6.51 7.711 11.022 14.463 11.022s12.672-4.512 14.463-11.022l24.469-88.978z"/></g></g><g><path d="m448.5 470.782v26.218c0 8.284 6.716 15 15 15s15-6.716 15-15v-26.218c18.002-34.062 27.5-72.299 27.5-110.845v-257.937h-85v257.936c0 38.547 9.498 76.784 27.5 110.846z"/><path d="m506 42.5c0-23.472-19.028-42.5-42.5-42.5-23.472 0-42.5 19.028-42.5 42.5v29.5h85z"/><path d="m416 72c-24.813 0-45 20.187-45 45v130c0 8.284 6.716 15 15 15s15-6.716 15-15v-130c0-8.271 6.729-15 15-15h5v-30z"/></g><g><path d="m176 264.996c0-39.244-3.026-78.811-8.993-117.6l-8.523-55.396h-134.968l-8.523 55.396c-5.967 38.79-8.993 78.356-8.993 117.6 0 28.425 1.591 57.16 4.73 85.406l3.511 31.598h153.518l3.511-31.598c3.139-28.246 4.73-56.981 4.73-85.406zm-70 72.004c0 8.284-6.716 15-15 15s-15-6.716-15-15v-120c0-8.284 6.716-15 15-15s15 6.716 15 15z"/><path d="m18.703 412 14.372 71.863c3.261 16.304 17.695 28.137 34.321 28.137h47.208c16.625 0 31.059-11.833 34.32-28.137l14.373-71.863z"/><path d="m156 62v-17c0-24.813-20.187-45-45-45h-40c-24.813 0-45 20.187-45 45v17z"/></g></g></svg>