<svg id="Solid" height="512" viewBox="0 0 512 512" width="512" xmlns="http://www.w3.org/2000/svg"><path d="m376 64h32v16h-32z"/><path d="m119.823 338.866a72.362 72.362 0 0 1 -24.23-15.959l-10.907-10.907h-20.686a24.028 24.028 0 0 0 -24 24v24h56a24.031 24.031 0 0 0 23.823-21.134z"/><path d="m376 408v-13.576a261.74 261.74 0 0 1 -28.579-7.063c-2.91-.9-5.768-1.869-8.6-2.871l-13.167 13.167a8 8 0 0 1 -11.314-11.314l8.329-8.329a197.8 197.8 0 0 1 -21.894-11.477l-15.121 15.12a8 8 0 0 1 -11.314-11.314l12.864-12.865a181.175 181.175 0 0 1 -18.128-15.243l-15.422 15.422a8 8 0 0 1 -11.314-11.314l15.7-15.7c-2.655-3.04-5.241-6.154-7.709-9.388a23.9 23.9 0 0 0 -18.931-9.255h-15.4a8.007 8.007 0 0 0 -8 8v16a8 8 0 0 1 -8 8h-53.49a72.137 72.137 0 0 1 -11.158-.875 40.058 40.058 0 0 1 -39.352 32.875h-56v56h312a24.028 24.028 0 0 0 24-24z"/><path d="m384 32h16v16h-16z"/><path d="m448 96h-112a24.028 24.028 0 0 0 -24 24v29.994c11.652-2.443 31.437-5.994 48-5.994 13.541 0 24.436 4.357 34.971 8.572 9.55 3.82 18.57 7.428 29.029 7.428 16.838 0 38.755-8.952 48-13.095v-26.905a24.028 24.028 0 0 0 -24-24z"/><path d="m389.029 167.428c-9.55-3.82-18.57-7.428-29.029-7.428-16.691 0-37.805 4.133-48 6.366v8.774a24.02 24.02 0 0 0 3.421 12.346l9.559 15.939a39.9 39.9 0 0 1 0 41.152l-9.559 15.939a24.016 24.016 0 0 0 -3.421 12.344v81.732a185.748 185.748 0 0 0 22.853 11.24l3.49-3.489a8 8 0 0 1 12.74 9.382c.362.114.713.241 1.077.354a250.7 250.7 0 0 0 33.147 7.748c8.172 1.354 16.69 2.394 25.316 3.09a32.15 32.15 0 0 1 29.377 31.883v9.2a71.883 71.883 0 0 1 -26.815 56h34.815a24.028 24.028 0 0 0 24-24v-183.14a24.02 24.02 0 0 0 -3.421-12.346l-9.559-15.939a39.9 39.9 0 0 1 0-41.152l9.559-15.939a24.016 24.016 0 0 0 3.421-12.344v-10.814c-12.081 4.956-31.493 11.674-48 11.674-13.541 0-24.436-4.357-34.971-8.572z"/><path d="m424 414.8a16.061 16.061 0 0 0 -14.667-15.936c-5.846-.471-11.638-1.11-17.333-1.875v11.011a40.045 40.045 0 0 1 -40 40h-312v8a24.027 24.027 0 0 0 24 24h8v-8a8 8 0 0 1 16 0v8h32v-8a8 8 0 0 1 16 0v8h32v-8a8 8 0 0 1 16 0v8h32v-8a8 8 0 0 1 16 0v8h32v-8a8 8 0 0 1 16 0v8h32v-8a8 8 0 0 1 16 0v8h32v-8a8 8 0 0 1 16 0v7.419a56.078 56.078 0 0 0 48-55.419z"/></svg>